<?xml version="1.0" encoding="UTF-8" standalone="no"?>
<!-- Created with Inkscape (http://www.inkscape.org/) -->

<svg
   xmlns:sketch="http://www.bohemiancoding.com/sketch/ns"
   xmlns:dc="http://purl.org/dc/elements/1.1/"
   xmlns:cc="http://creativecommons.org/ns#"
   xmlns:rdf="http://www.w3.org/1999/02/22-rdf-syntax-ns#"
   xmlns:svg="http://www.w3.org/2000/svg"
   xmlns="http://www.w3.org/2000/svg"
   xmlns:sodipodi="http://sodipodi.sourceforge.net/DTD/sodipodi-0.dtd"
   xmlns:inkscape="http://www.inkscape.org/namespaces/inkscape"
   width="97mm"
   height="98mm"
   viewBox="0 0 97 98"
   version="1.1"
   id="svg8"
   inkscape:version="0.92.2 5c3e80d, 2017-08-06"
   sodipodi:docname="python-bitshares-logo.svg"
   inkscape:export-filename="/home/schiessl/Documents/Logos/python-bitshares/python-bitshares-logo.png"
   inkscape:export-xdpi="300"
   inkscape:export-ydpi="300">
  <defs
     id="defs2">
    <linearGradient
       gradientUnits="userSpaceOnUse"
       gradientTransform="matrix(0.04864707,0,0,0.07965578,132.7115,-7.64559)"
       x1="699.64471"
       y1="83.421288"
       x2="699.64471"
       y2="720.01819"
       id="linearGradient-1">
      <stop
         stop-color="#00A9E0"
         offset="0%"
         id="stop4595" />
      <stop
         stop-color="#00587C"
         offset="100%"
         id="stop4597" />
    </linearGradient>
  </defs>
  <sodipodi:namedview
     id="base"
     pagecolor="#ffffff"
     bordercolor="#666666"
     borderopacity="1.0"
     inkscape:pageopacity="0.0"
     inkscape:pageshadow="2"
     inkscape:zoom="1"
     inkscape:cx="513.65772"
     inkscape:cy="204.67622"
     inkscape:document-units="mm"
     inkscape:current-layer="layer1"
     showgrid="false"
     inkscape:measure-start="552.375,795.25"
     inkscape:measure-end="552.25,795.125"
     inkscape:window-width="2560"
     inkscape:window-height="1025"
     inkscape:window-x="1920"
     inkscape:window-y="0"
     inkscape:window-maximized="1" />
  <metadata
     id="metadata5">
    <rdf:RDF>
      <cc:Work
         rdf:about="">
        <dc:format>image/svg+xml</dc:format>
        <dc:type
           rdf:resource="http://purl.org/dc/dcmitype/StillImage" />
        <dc:title></dc:title>
      </cc:Work>
    </rdf:RDF>
  </metadata>
  <g
     inkscape:label="Layer 1"
     inkscape:groupmode="layer"
     id="layer1"
     transform="translate(0,-199)">
    <path
       style="fill:#fcd041;stroke-width:0.07352495"
       d="m 48.736558,200.1976 c -2.539277,-0.0219 -5.329025,0.0837 -7.473444,0.30696 -8.08691,0.84197 -13.345689,3.29871 -15.204241,7.10292 -0.58945,1.20652 -0.555948,0.77629 -0.582909,7.44916 -0.01323,3.27554 0.0044,5.99791 0.03876,6.04976 0.0501,0.0756 2.299388,0.10573 11.345045,0.15141 6.2055,0.0313 11.322716,0.0817 11.371916,0.11214 0.13908,0.0859 0.125939,2.91009 -0.01447,3.10214 -0.102629,0.14036 -0.387689,0.14329 -17.259927,0.18448 l -17.156059,0.0419 -0.772047,0.1912 c -4.3929589,1.0871 -7.4590479,3.75549 -9.5275819,8.29097 -1.720344,3.77202 -2.479855,8.07194 -2.486154,14.07976 -0.0094,8.98908 2.010296,15.82905 5.798613,19.63756 1.815243,1.82492 4.2189509,3.08714 6.3546489,3.33675 0.883211,0.10327 9.051417,0.0888 9.086268,-0.016 0.0168,-0.0505 0.0665,-3.00327 0.110072,-6.56187 0.04357,-3.55861 0.112254,-6.71851 0.152445,-7.0218 0.167904,-1.26703 0.848333,-3.35947 1.482595,-4.55837 1.695016,-3.20398 4.485899,-5.29902 8.072376,-6.05958 0.928392,-0.19688 4.004271,-0.26186 16.065169,-0.33952 6.468571,-0.0417 11.742023,-0.10511 12.094353,-0.14573 1.859381,-0.21433 4.336661,-1.13465 5.93607,-2.20503 2.292871,-1.53445 3.672112,-3.60512 4.455544,-6.69055 l 0.233061,-0.9188 v -12.64678 -12.64625 l -0.206706,-0.58808 c -0.839502,-2.38701 -2.224352,-4.15487 -4.388363,-5.60172 -3.149878,-2.10603 -7.242398,-3.28247 -13.418299,-3.85766 -1.149816,-0.10709 -2.583161,-0.16618 -4.106728,-0.17932 z m -13.480314,7.18354 c 1.75487,0.006 3.42146,1.15236 3.988903,3.1166 0.520431,1.80151 -0.491934,3.79112 -2.264976,4.7439 -0.546745,0.29381 -0.98443,0.32486 -1.580782,0.339 -1.073761,0.0252 -1.285126,-0.0155 -2.021065,-0.38603 -0.657489,-0.33105 -1.46658,-1.12058 -1.798341,-1.75544 -0.885999,-1.69547 -0.455406,-3.90247 0.991156,-5.08083 0.822433,-0.66995 1.765887,-0.98013 2.685105,-0.9772 z m 48.236851,16.68115 -4.6638,0.0191 -4.6638,0.0186 -0.0517,5.66167 c -0.0633,6.96002 -0.10414,7.7221 -0.4966,9.26042 -0.636315,2.49405 -1.777087,4.59565 -3.351739,6.17481 -1.544499,1.54892 -4.459054,2.89767 -7.095172,3.49643 7.977518,4.7584 12.310081,13.48349 12.911871,20.92947 4.35154,-0.0352 6.52574,-0.0976 7.16391,-0.19689 1.15665,-0.17993 3.18198,-1.0431 4.4514,-1.89704 3.53591,-2.37861 6.07797,-6.90214 7.05125,-12.54807 0.0627,-0.36395 0.15549,-0.8936 0.20619,-1.17667 0.12905,-0.72327 0.13169,-12.79619 0.003,-13.49168 -0.0488,-0.26285 -0.14204,-0.82545 -0.20774,-1.25006 -0.17106,-1.10552 -0.66077,-3.17986 -1.00511,-4.25813 -1.83454,-5.74485 -5.08467,-9.33411 -9.55445,-10.55181 z m -2.50011,32.27348 c 2.05858,-6e-5 3.72742,1.39161 3.72742,3.10834 0,1.71673 -1.66884,3.1084 -3.72742,3.10834 -2.05837,-1.8e-4 -3.7269,-1.39178 -3.7269,-3.10834 0,-1.71656 1.66853,-3.10816 3.7269,-3.10834 z"
       id="path883"
       inkscape:connector-curvature="0"
       sodipodi:nodetypes="sscccscccccsccccccsssccccccccsssssccccsccccsccccccccccccccccc" />
    <g
       id="g3253"
       transform="matrix(0.98097908,0,0,0.98097908,-41.865715,177.848)">
      <g
         transform="matrix(0.96242073,0,0,0.96242073,46.9861,34.273454)"
         id="g1069">
        <g
           id="g1067">
          <path
             style="fill:#0277bd"
             inkscape:connector-curvature="0"
             d="M 40,58.7 22.2,40.9 c 0,9.1 0,15.4 0,21.4 H 38.6 C 38.8,61 39.3,59.8 40,58.7 Z"
             id="path1051" />
          <path
             style="fill:#0288d1"
             inkscape:connector-curvature="0"
             d="M 38.6,65.8 H 22.2 c 0.4,5.8 2.7,11 6.2,15.1 L 40,69.2 c -0.7,-1 -1.2,-2.2 -1.4,-3.4 z"
             id="path1053" />
          <path
             style="fill:#b3e5fc"
             inkscape:connector-curvature="0"
             d="M 64.5,44.7 C 60.4,41.1 55.2,38.8 49.4,38.5 v 16.4 c 1.3,0.2 2.5,0.7 3.5,1.4 z"
             id="path1055" />
          <path
             style="fill:#4fc3f7"
             inkscape:connector-curvature="0"
             d="m 55.6,69 11.6,11.6 c 3.5,-4.1 5.7,-9.2 6.1,-14.9 H 56.8 C 56.6,66.9 56.2,68 55.6,69 Z"
             id="path1057" />
          <path
             style="fill:#81d4fa"
             inkscape:connector-curvature="0"
             d="M 56.8,62.3 H 73.2 C 72.8,56.5 70.5,51.3 67,47.2 L 55.4,58.8 c 0.7,1 1.2,2.2 1.4,3.5 z"
             id="path1059" />
          <path
             style="fill:#039be5"
             inkscape:connector-curvature="0"
             d="m 30.9,83.3 c 4.1,3.6 9.3,5.9 15.1,6.2 V 73.1 c -1.3,-0.2 -2.5,-0.7 -3.5,-1.4 z"
             id="path1061" />
          <path
             style="fill:#29b6f6"
             inkscape:connector-curvature="0"
             d="m 49.4,73.1 v 16.4 c 5.8,-0.4 11,-2.7 15.1,-6.3 L 53,71.7 c -1.1,0.7 -2.3,1.2 -3.6,1.4 z"
             id="path1063" />
          <path
             style="fill:#01579b"
             inkscape:connector-curvature="0"
             d="m 22.2,35.6 c 4.4,4.4 18.2,18.3 20.5,20.6 1,-0.6 2.1,-1.1 3.2,-1.3 0,-4.6 0,-26.8 0,-26.8 L 22.2,6.9 c 0,0 0,27.9 0,28.7 z"
             id="path1065" />
        </g>
      </g>
    </g>
    <g
       style="fill:none;fill-rule:evenodd;stroke:none;stroke-width:1"
       transform="matrix(0.06224966,0,0,0.06224966,107.47335,174.69846)"
       sketch:type="MSLayerGroup"
       id="g4936" />
    <g
       id="g1047"
       transform="matrix(2.0818598,0,0,2.0818598,-322.44186,89.875665)">
      <path
         style="fill:#046d94;fill-opacity:1;stroke-width:2.08185959"
         d="m 471.85352,104.28906 c -0.0188,-0.002 -0.0369,0.006 -0.0527,0.0215 -1.18113,1.18108 -8.61965,39.30638 -9.16406,41.28515 -0.26709,0.97079 -2.51576,7.74473 0.44726,6.14063 2.09212,-0.69989 4.90319,-2.69989 4.71611,13.85653 l 0.087,240.15211 c 7.7e-4,2.11694 -0.0929,5.7385 3.5055,5.7023 3.22333,-0.0324 3.51957,-3.32522 3.52865,-5.84169 0.28799,-79.77227 0.97161,-239.6957 0.97161,-239.6957 -0.10502,-16.76997 1.77575,-14.92131 3.70096,-14.34933 3.14097,1.85252 1.20446,-5.05409 0.99469,-5.89899 -0.4805,-1.93533 -2.17055,-10.85355 -4.19196,-22.0014 -1.95823,-10.79949 -3.9598,-19.30975 -4.54296,-19.3711 z"
         transform="matrix(0.12708989,0,0,0.12708989,133.84826,41.216833)"
         id="path1013"
         inkscape:connector-curvature="0"
         sodipodi:nodetypes="ccsccsssccsccc" />
    </g>
    <path
       style="fill:#fcd041;stroke-width:0.07352495"
       d="m 94.954925,253.80415 c -12.95289,16.21621 -19.347,3.05808 -19.62102,11.23445 -0.032,2.4e-4 -0.0287,2.6e-4 -0.061,5.3e-4 0.0248,0.092 0.0475,0.184 0.0713,0.27595 0.0845,0.32646 0.16333,0.65269 0.23461,0.97772 0.0105,0.0478 0.0198,0.0954 0.03,0.14314 0.0704,0.3298 0.13547,0.6586 0.19224,0.98599 0.005,0.0283 0.009,0.0565 0.014,0.0848 0.0579,0.34058 0.10886,0.68001 0.15192,1.01699 0.003,0.0231 0.005,0.0461 0.008,0.0692 0.0431,0.34556 0.0794,0.6892 0.10697,1.02991 l -0.015,0.64234 c 4.05715,0.0113 6.55716,-0.74251 7.17888,-0.83923 1.15665,-0.17993 3.18199,-1.04311 4.45141,-1.89704 0.13684,-0.0921 0.27184,-0.18839 0.40566,-0.2868 0.0328,-0.0241 0.0651,-0.0489 0.0977,-0.0734 0.0765,-0.0574 0.15193,-0.11672 0.22738,-0.17621 0.16849,-0.13287 0.33484,-0.26994 0.49816,-0.4129 0.0205,-0.0179 0.0416,-0.0346 0.062,-0.0527 0.17926,-0.15892 0.35432,-0.32578 0.5271,-0.49661 0.0481,-0.0476 0.0955,-0.0962 0.14314,-0.14469 0.14599,-0.14868 0.28989,-0.30131 0.43098,-0.45837 0.0276,-0.0307 0.0559,-0.06 0.0832,-0.0909 0.16531,-0.18719 0.32645,-0.38081 0.48473,-0.57929 0.038,-0.0477 0.0755,-0.0963 0.11317,-0.1447 0.0558,-0.0717 0.11253,-0.14186 0.16743,-0.21497 -0.003,1.6e-4 -0.004,2.6e-4 -0.008,5.3e-4 1.84531,-2.455 3.17565,-5.68866 3.81837,-9.417 0.0627,-0.36395 0.15549,-0.8936 0.20619,-1.17667 z"
       id="path2461"
       inkscape:connector-curvature="0" />
    <path
       sodipodi:nodetypes="cccccccccccccc"
       style="fill:#fcd041;stroke-width:0.07352495"
       d="m 36.451491,221.25767 c -1.491787,-0.008 -2.798733,-0.0146 -3.941456,-0.0216 -5.786336,-0.0352 -7.36193,-0.0665 -7.40377,-0.12965 -0.03437,-0.0519 -0.05166,-2.77425 -0.03843,-6.04979 0.02696,-6.67287 -0.0067,-6.24264 0.582751,-7.44915 0.536393,-1.09793 1.355999,-2.08361 2.445069,-2.95063 2.684459,-2.13712 7.009046,-3.5065 12.762009,-4.10547 -3.052003,6.37918 2.664604,20.81944 -4.406173,20.70629 z m -5.341074,-13.78786 c -1.44656,1.17836 -1.45606,4.88184 -0.57006,6.57731 0.33176,0.63487 2.029341,2.14968 2.686831,2.48074 0.73594,0.37056 1.836121,0.2706 2.909881,0.2454 6.35181,-3.19176 4.429095,-12.81739 -5.026652,-9.30345 z"
       id="path3255"
       inkscape:connector-curvature="0" />
  </g>
</svg>
